<?xml version="1.0" encoding="UTF-8"?>
<svg id="_レイヤー_2" data-name="レイヤー 2" xmlns="http://www.w3.org/2000/svg" viewBox="0 0 42.519685 113.385827">
  <defs>
    <style>
      .cls-1 {
        fill: #b28247;
      }

      .cls-2 {
        stroke-width: .75px;
      }

      .cls-2, .cls-3, .cls-4 {
        stroke-miterlimit: 10;
      }

      .cls-2, .cls-4 {
        fill: none;
        stroke: #b28247;
      }

      .cls-3 {
        stroke: #004664;
        stroke-width: .25px;
      }

      .cls-3, .cls-5 {
        fill: #f9f9f9;
      }

      .cls-5 {
        opacity: .7;
      }

      .cls-4 {
        stroke-width: 4px;
      }
    </style>
  </defs>
  <line class="cls-4" x1="1.996114" x2="1.996114" y2="113.385827"/>
  <rect class="cls-5" x="2.834646" y="0" width="39.685039" height="113.385827" transform="translate(45.354331 113.385827) rotate(180)"/>
  <line class="cls-2" x1="36.850394" y1="0" x2="36.850394" y2="113.385827"/>
  <line class="cls-2" x1="25.511811" y1="0" x2="25.511811" y2="113.385827"/>
  <line class="cls-2" x1="14.173228" y1="0" x2="14.173228" y2="113.385827"/>
  <line class="cls-2" x1="42.519676" y1="2.834646" x2=".987668" y2="2.834646"/>
  <line class="cls-2" x1="42.519676" y1="11.338583" x2=".987668" y2="11.338583"/>
  <line class="cls-2" x1="42.519676" y1="19.84252" x2=".987668" y2="19.84252"/>
  <line class="cls-2" x1="42.519685" y1="28.346457" x2="1.12313" y2="28.346457"/>
  <line class="cls-2" x1="42.519685" y1="36.850394" x2="1.12313" y2="36.850394"/>
  <line class="cls-2" x1="42.519685" y1="45.354331" x2="1.12313" y2="45.354331"/>
  <line class="cls-2" x1="42.519676" y1="53.858268" x2=".987668" y2="53.858268"/>
  <line class="cls-2" x1="42.519676" y1="62.362205" x2=".987668" y2="62.362205"/>
  <line class="cls-2" x1="42.519676" y1="70.866142" x2=".987668" y2="70.866142"/>
  <line class="cls-2" x1="42.519676" y1="79.370079" x2=".987668" y2="79.370079"/>
  <line class="cls-2" x1="42.519676" y1="87.874016" x2=".987668" y2="87.874016"/>
  <line class="cls-2" x1="42.519676" y1="96.377953" x2=".987668" y2="96.377953"/>
  <line class="cls-2" x1="42.519363" y1="104.882621" x2=".987355" y2="104.882621"/>
  <rect class="cls-1" x=".987355" y="96.441964" width="41.53233" height="16.943863" transform="translate(43.50704 209.82779) rotate(180)"/>
  <rect class="cls-3" x=".779528" y="54.778435" width="1.275591" height="3.828957" rx=".255264" ry=".255264" transform="translate(2.834646 113.385827) rotate(180)"/>
</svg>