<?xml version="1.0" encoding="UTF-8"?>
<svg id="_レイヤー_3" data-name="レイヤー 3" xmlns="http://www.w3.org/2000/svg" viewBox="0 0 38.267717 136.062992">
  <defs>
    <style>
      .cls-1 {
        fill: #b28247;
      }

      .cls-2 {
        stroke-width: .75px;
      }

      .cls-2, .cls-3, .cls-4 {
        stroke-miterlimit: 10;
      }

      .cls-2, .cls-4 {
        fill: none;
        stroke: #b28247;
      }

      .cls-3 {
        stroke: #004664;
        stroke-width: .25px;
      }

      .cls-3, .cls-5 {
        fill: #f9f9f9;
      }

      .cls-5 {
        opacity: .7;
      }

      .cls-4 {
        stroke-width: 3px;
      }
    </style>
  </defs>
  <line class="cls-4" x1="36.767947" x2="36.767947" y2="136.062992"/>
  <rect class="cls-5" x=".000056" width="36.141732" height="136.062992"/>
  <line class="cls-2" x1="25.511811" x2="25.511811" y2="136.062992"/>
  <line class="cls-2" x1="15.590551" y1="0" x2="15.590551" y2="136.062992"/>
  <line class="cls-2" x1="5.669291" x2="5.669291" y2="136.062992"/>
  <line class="cls-2" x1=".000056" y1="5.669291" x2="36.768003" y2="5.669291"/>
  <line class="cls-2" x1=".000056" y1="14.173228" x2="36.768003" y2="14.173228"/>
  <line class="cls-2" x1=".000056" y1="22.677165" x2="36.768003" y2="22.677165"/>
  <line class="cls-2" x1=".000056" y1="31.181102" x2="36.768003" y2="31.181102"/>
  <line class="cls-2" x1=".000056" y1="39.685039" x2="36.768003" y2="39.685039"/>
  <line class="cls-2" x1=".000056" y1="48.188976" x2="36.768003" y2="48.188976"/>
  <line class="cls-2" y1="56.692913" x2="36.767947" y2="56.692913"/>
  <line class="cls-2" y1="65.19685" x2="36.767947" y2="65.19685"/>
  <line class="cls-2" y1="73.700787" x2="36.767947" y2="73.700787"/>
  <line class="cls-2" y1="82.204724" x2="36.767947" y2="82.204724"/>
  <line class="cls-2" y1="90.708661" x2="36.767947" y2="90.708661"/>
  <line class="cls-2" y1="99.212598" x2="36.767947" y2="99.212598"/>
  <line class="cls-2" x1=".000056" y1="107.780546" x2="36.768003" y2="107.780546"/>
  <rect class="cls-1" x=".000056" y="107.770537" width="36.767947" height="28.292455"/>
  <rect class="cls-3" x="36.730316" y="65.905512" width=".992126" height="4.251969" rx=".237231" ry=".237231"/>
</svg>