<?xml version="1.0" encoding="UTF-8"?>
<svg id="_レイヤー_1" data-name="レイヤー 1" xmlns="http://www.w3.org/2000/svg" viewBox="0 0 178.165354 64.77954">
  <defs>
    <style>
      .cls-1 {
        fill: none;
        stroke: #231815;
        stroke-miterlimit: 10;
      }
    </style>
  </defs>
  <path class="cls-1" d="M106.300943,43.019795h40.183106c5.870661,0,10.629872,4.759212,10.629872,10.629872s-4.759212,10.629872-10.629872,10.629872H26.011755c-5.870661,0-10.629872-4.759212-10.629872-10.629872s4.759212-10.629872,10.629872-10.629872h11.292755l-.044714-.000038c5.870738,0,10.629911-4.759173,10.629911-10.629911s-4.759173-10.629911-10.629938-10.630101H11.130178C5.259212,21.759745.5,17.000838.5,11.129872.5,5.259212,5.259212.5,11.130178.5h155.905304c5.870661,0,10.629872,4.759212,10.629872,10.629872,0,5.870966-4.759212,10.629872-10.629872,10.629872h-60.734532l.200236.00019c-5.870738,0-10.629911,4.759173-10.629911,10.629911s4.759173,10.629911,10.629911,10.629911"/>
</svg>