<?xml version="1.0" encoding="UTF-8"?>
<svg id="_レイヤー_1" data-name="レイヤー 1" xmlns="http://www.w3.org/2000/svg" viewBox="0 0 171.07874 94.281417">
  <defs>
    <style>
      .cls-1 {
        fill: none;
        stroke: #231815;
        stroke-miterlimit: 10;
      }
    </style>
  </defs>
  <path class="cls-1" d="M110.677671,76.536984h-39.585631s-38.543242,0-38.543242,0H8.103691c-4.199402,0-7.603691-3.404288-7.603691-7.603691v-.000015c0-4.199402,3.404288-7.603691,7.603691-7.603691h19.902506s4.542584,0,4.542601,0c0,0,24.514553,0,24.514559,0,4.199407,0,7.603698-3.404292,7.603698-7.603698s-3.404292-7.603698-7.603698-7.603698h-26.747563c-4.199402,0-7.603691-3.404288-7.603691-7.603691v-.000015c0-4.199402,3.404288-7.603691,7.603691-7.603691h10.295639-.016847c4.199407,0,7.603698-3.404292,7.603698-7.603698s-3.404292-7.603698-7.603698-7.603698h.016844s-16.197265,0-16.197265,0c-4.199402,0-7.603691-3.404288-7.603691-7.603691v-.000015c0-4.199402,3.404288-7.603691,7.603691-7.603691h85.000222s26.520702,0,26.520702,0c4.199402,0,7.603691,3.404288,7.603691,7.603691v.000015c0,4.199402-3.404288,7.603691-7.603691,7.603691h-26.520683s-22.143968,0-22.143968,0c-4.199407,0-7.603698,3.404292-7.603698,7.603698s3.404292,7.603698,7.603698,7.603698c-.000011,0,23.295701,0,23.295701,0,0,0,17.168315,0,17.168315,0h5.927885c4.199402,0,7.603691,3.404288,7.603691,7.603691v.000015c0,4.199402-3.404288,7.603691-7.603691,7.603691h-5.927885c-.000011,0-17.168296,0-17.168336,0-4.199407,0-7.603698,3.404292-7.603698,7.603698s3.404292,7.603698,7.603738,7.603698h52.40889c4.199402,0,7.603691,3.404288,7.603691,7.603691v.000015c0,4.199402-3.404288,7.603691-7.603691,7.603691h-52.40887"/>
</svg>