<?xml version="1.0" encoding="UTF-8"?>
<svg id="_レイヤー_1" data-name="レイヤー 1" xmlns="http://www.w3.org/2000/svg" viewBox="0 0 213.598425 77.535448">
  <defs>
    <style>
      .cls-1 {
        fill: none;
        stroke: #231815;
        stroke-miterlimit: 10;
      }
    </style>
  </defs>
  <path class="cls-1" d="M44.611754,26.01174c7.044885,0,12.755893,5.711008,12.755893,12.755893s-5.711008,12.755893-12.755926,12.756121H13.256213c-7.045159,0-12.756213,5.710688-12.756213,12.755847,0,7.044793,5.711054,12.755847,12.756213,12.755847h187.086365c7.044793,0,12.755847-5.711054,12.755847-12.755847,0-7.045159-5.711054-12.755847-12.755847-12.755847h-82.273235s-14.671837,0-14.671861-.000228c-7.044885,0-12.755893-5.711008-12.755893-12.755893s5.711008-12.755893,12.755923-12.755939h72.283347c7.044793,0,12.755847-5.711054,12.755847-12.755847s-5.711054-12.755847-12.755847-12.755847H31.114106c-7.044793,0-12.755847,5.711054-12.755847,12.755847s5.711054,12.755847,12.755847,12.755847h13.551306"/>
</svg>