<?xml version="1.0" encoding="UTF-8"?>
<svg id="_レイヤー_1" data-name="レイヤー 1" xmlns="http://www.w3.org/2000/svg" viewBox="0 0 199.425197 97.581131">
  <defs>
    <style>
      .cls-1 {
        fill: none;
        stroke: #231815;
        stroke-miterlimit: 10;
      }
    </style>
  </defs>
  <path class="cls-1" d="M27.594248,35.123226h-11.720225c-4.780465,0-8.655798,3.875333-8.655798,8.655798v.000017c0,4.780465,3.875333,8.655798,8.655798,8.655798h46.418335c4.78047,0,8.655806,3.875337,8.655806,8.655806s-3.875337,8.655806-8.655806,8.655806c.000015,0-5.171117,0-5.171117,0h-22.656374c-4.780465,0-8.655798,3.875333-8.655798,8.655798v.000017c0,4.780465,3.875333,8.655798,8.655798,8.655798h155.804532c4.780465,0,8.655798-3.875333,8.655798-8.655798v-.000017c0-4.780465-3.875333-8.655798-8.655798-8.655798h-75.442762s-7.601576,0-7.601576,0c-4.77711,0-8.652447-3.875337-8.652447-8.655806s3.875337-8.655806,8.652452-8.655806h6.748114c4.780465,0,8.655798-3.875333,8.655798-8.655798v-.000017c0-4.780465-3.875333-8.655798-8.655798-8.655798,0,0-52.807653,0-52.807653,0-4.78047,0-8.655806-3.875337-8.655806-8.655806s3.875337-8.655806,8.655785-8.655806h74.942137c4.780465,0,8.655798-3.875333,8.655798-8.655798v-.000017c0-4.780465-3.875333-8.655798-8.655798-8.655798H9.155798c-4.780465,0-8.655798,3.875333-8.655798,8.655798v.000017c0,4.780465,3.875333,8.655798,8.655798,8.655798h18.438447s-.019175,0-.019175,0c4.78047,0,8.655806,3.875337,8.655806,8.655806s-3.875337,8.655806-8.655806,8.655806"/>
</svg>